# xmcd
#
# Track frame offsets:
#	150
#	1327
#	23004
#	37201
#	53362
#	64231
#	76526
#	96157
#	111405
#	125850
#	145963
#	164567
#	179273
#	195362
#	207177
#	218866
#	230429
#	243751
#	258200
#	272641
#	285758
#	298311
#	309860
#	323667
#	339983
#
# Disc length: 4693
#
# Revision: 2
# Processed by: cddbd v1.5.1PL0 Copyright (c) Steve Scherf et al.
# Submitted via: audiograbber 1.83.01
# Normalized: r1:DSETVAR1
#
DISCID=5d125319
DTITLE=Various Artist - Hard Trance vol. 60 Cd 2 Mixed by AC Seven
DYEAR=2005
DGENRE=Vocal Trance
TTITLE0=Intro - Coundown
TTITLE1=Dogma - In Den Himmel Fallen (Dj Pontos Remix)
TTITLE2=Molella - Tell Me (Claudio Lancini Remix)
TTITLE3=Illusion - Winds Of Change 2003
TTITLE4=Code Red Feat. Estefania - Downhill Dancing
TTITLE5=Akira - Piece Of Heaven 2004 (Cascade Extended Mix)
TTITLE6=4 Elements - Planet Love
TTITLE7=Future Trance United - Face 2 Face (Baracuda Remix)
TTITLE8=Sonic Fire - Like One (Sad Club Mix)
TTITLE9=Alx - Have It All (Original)
TTITLE10=Elemental - Reach Out (Trance Mix)
TTITLE11=East Clubbers - Bungee (Extended Mix)
TTITLE12=Scooter - Shake That! (Cj Stone Mix)
TTITLE13=Styleshaker - Breaking My Heart (Starsplash Mix)
TTITLE14=Spring Break - Big Bad Love (Original Mix)
TTITLE15=Mandaryna - L'ete Indien (Flashrider Remix)
TTITLE16=Bass-T - P.O.W.E.R (89ers Remix)
TTITLE17=D.H.T. - My Dream (Hardbounze Extended)
TTITLE18=Drumdummies - Bang The Beat (Potatoheadz Mix)
TTITLE19=Future Trance United Pres.2nd Spring - Irresistible (Special D. Remix)
TTITLE20=G And G Feat Kline - Expove Project (Sensation Version)
TTITLE21=Mario Lopez - You Play Me Like A Jojo (Rio Et Juliano Remix)
TTITLE22=Clubbticket - You Got Me (Clubbticket Remix)
TTITLE23=Dj Roland Kenzo - Listen Feel Enjoy (A1 Mix)
TTITLE24=Dj D - Music 4 The People (Bassebeats Remix)
EXTD=
EXTT0=
EXTT1=
EXTT2=
EXTT3=
EXTT4=
EXTT5=
EXTT6=
EXTT7=
EXTT8=
EXTT9=
EXTT10=
EXTT11=
EXTT12=
EXTT13=
EXTT14=
EXTT15=
EXTT16=
EXTT17=
EXTT18=
EXTT19=
EXTT20=
EXTT21=
EXTT22=
EXTT23=
EXTT24=
PLAYORDER=
